<svg height="960" viewBox="0 0 960 960" width="960" xmlns="http://www.w3.org/2000/svg"><g fill="none" fill-rule="evenodd" stroke="#000" stroke-linejoin="round"><circle cx="479.418317" cy="261.663366" r="231" stroke-linecap="round" stroke-width="20"/><circle cx="479.418317" cy="261.663366" r="126" stroke-linecap="round" stroke-width="20"/><path d="m479.418317 21c66.457353 0 126.623195 26.9371648 170.174698 70.488668 43.551503 43.551503 70.488668 103.717345 70.488668 170.174698 0 11.973262-.875719 23.742088-2.563919 35.249521 16.780373 22.962621 26.360949 51.079047 26.360949 80.742391v478.933831c0 21.65257-8.776438 41.255292-22.966018 55.444873-14.189581 14.18958-33.792304 22.966018-55.444873 22.966018h-369.935644c-21.652569 0-41.255292-8.776438-55.444873-22.966018-14.18958-14.189581-22.966018-33.792303-22.966018-55.444873v-478.02326c0-28.681001 8.954118-55.900269 24.699552-78.419191-2.017729-12.529359-3.065889-25.383984-3.065889-38.483292 0-66.457353 26.937165-126.623195 70.488669-170.174698 43.551503-43.5515032 103.717344-70.488668 170.174698-70.488668z" stroke-width="40"/></g></svg>