<svg height="960" viewBox="0 0 960 960" width="960" xmlns="http://www.w3.org/2000/svg"><g fill="#000" fill-rule="nonzero"><path d="m11 393.246696c.1367192-3.523167 3.051102-6.294524 6.5684211-6.246696h8.4210526l137.8526313 132.771823v-122.726841c-.007463-1.853466.76488-3.624229 2.127346-4.8774 1.362466-1.25317 3.188831-1.872649 5.030549-1.706296h41.431579c3.572392.130335 6.438388 3.002997 6.568421 6.583696v232.708322c-.136719 3.523167-3.051102 6.294524-6.568421 6.246696h-5.810526c-1.600028-.201431-3.129663-.779994-4.463158-1.688753l-136.3368424-137.32914v128.972911c0 3.636075-2.9407822 6.583696-6.568421 6.583696h-41.3473684c-3.7032573.048364-6.7684082-2.874047-6.9052632-6.583696z"/><path d="m319.58758 397.554108c.129615-3.564607 2.986406-6.424359 6.547324-6.554108h41.970021c3.615987 0 6.547323 2.934374 6.547323 6.554108v139.400836c0 23.574677 19.091269 42.685729 42.641542 42.685729s42.641542-19.111052 42.641542-42.685729v-139.400836c0-3.619734 2.931336-6.554108 6.547323-6.554108h41.970022c3.560917.129749 6.417708 2.989501 6.547323 6.554108v142.173728c-1.55151 53.062326-44.969902 95.272164-98 95.272164s-96.44849-42.209838-98-95.272164v-142.173728z"/><path d="m617.1681 400.394288c0-4.636037 3.76304-8.394288 8.404986-8.394288h40.259885c4.641945 0 8.404986 3.758251 8.404986 8.394288v90.406478l76.485375-95.275165c1.679651-1.922884 4.017584-3.150234 6.55589-3.441658h43.369729c2.865073.317885 5.367147 2.080017 6.628974 4.668579s1.107345 5.642372-.409284 8.090738l-80.603819 100.731453 87.495908 113.910484c1.533118 2.497735 1.651429 5.61306.312156 8.219602-1.339272 2.606542-3.942342 4.327147-6.868046 4.539715h-47.488172c-2.301493-.024771-4.514154-.890791-6.21969-2.434343l-79.511171-107.698712v102.494253c0 4.636037-3.76304 8.394288-8.404986 8.394288h-40.175835c-4.641945 0-8.404986-3.758251-8.404986-8.394288v-224.211424z"/><path d="m894 399.527197c.131061-3.549971 3.019725-6.39798 6.62037-6.527197h41.75926c3.600645.129217 6.489309 2.977226 6.62037 6.527197v226.945606c-.131061 3.549971-3.019725 6.39798-6.62037 6.527197h-41.75926c-3.600645-.129217-6.489309-2.977226-6.62037-6.527197z"/><path d="m887.012124 250.750768c-.247455-9.410464 3.301884-18.520957 9.839388-25.255885 6.537505-6.734927 15.506375-10.520673 24.863281-10.494883 19.487482 0 35.285207 15.893782 35.285207 35.499592 0 19.605811-15.797725 35.49946-35.285207 35.49946-9.282553.069015-18.200035-3.633412-24.732565-10.268649-6.532529-6.635238-10.127313-15.641803-9.970104-24.979635z"/></g></svg>